<svg xmlns="http://www.w3.org/2000/svg" viewBox="0 0 64 64" width="64" height="64"><g class="nc-icon-wrapper" stroke="none" fill="#111111"><path d="M20.293,23.707a1,1,0,0,0,1.414-1.414l-12-12a1,1,0,0,0-1.414,1.414Z" fill="#111111"></path> <path d="M43.535,42.707l-2.828,2.828L55.879,60.707a1,1,0,0,0,1.414,0l1.414-1.414a1,1,0,0,0,0-1.414Z" data-color="color-2"></path> <path d="M57.707,8.293a1,1,0,0,0-1.414,0L32.707,31.879l-5.586-5.586,1.465-1.465a4,4,0,0,0,0-5.656L14.707,5.293a1,1,0,0,0-1.414,1.414L27.172,20.586a2,2,0,0,1,0,2.828l-5.758,5.758a2,2,0,0,1-2.828,0L4.707,15.293a1,1,0,0,0-1.414,1.414L17.172,30.586a4,4,0,0,0,5.656,0l1.465-1.465,5.586,5.586L7.293,57.293a1,1,0,0,0,0,1.414l2,2a1,1,0,0,0,1.414,0L27,44.414l5.293,5.293a1,1,0,0,0,1.414,0l24-24A12.328,12.328,0,0,0,57.707,8.293Z" fill="#111111"></path></g></svg>